<svg width="20" height="22" viewBox="0 0 20 22" fill="none" xmlns="http://www.w3.org/2000/svg">
<path d="M3.64549 12.7471C3.63379 13.5141 3.63379 14.3568 3.64549 15.3911C3.65719 16.7219 4.58712 17.675 5.9089 17.7098C6.40018 17.7214 6.86807 17.7273 7.31841 17.7273C7.7863 17.7273 8.23664 17.7214 8.68113 17.704C9.98537 17.6633 10.8977 16.7219 10.9094 15.4144C10.9094 15.1122 10.9094 14.81 10.9094 14.5078C10.9094 14.3684 10.9094 14.2347 10.9094 14.0953C10.9094 13.9558 10.9094 13.8105 10.9094 13.671C10.9094 13.363 10.9094 13.0376 10.9094 12.7238C10.8977 11.4918 9.96197 10.5272 8.74547 10.4807C7.80969 10.4458 6.84467 10.4458 5.86796 10.4807C4.61051 10.5272 3.65719 11.4976 3.64549 12.7471ZM4.669 13.6536C4.669 13.3572 4.66315 13.055 4.67484 12.7587C4.70409 12.0148 5.09009 11.5906 5.79777 11.5267C6.28321 11.4802 6.77449 11.457 7.26577 11.457C7.75705 11.457 8.24834 11.4802 8.73377 11.5267C9.4473 11.5964 9.86255 12.0613 9.88009 12.8052C9.89764 13.642 9.89764 14.5078 9.88009 15.3795C9.8684 16.1234 9.45315 16.5941 8.73962 16.6638C7.76875 16.7626 6.78034 16.7626 5.80362 16.6638C5.07255 16.5883 4.69239 16.1582 4.669 15.3853C4.66315 15.0832 4.66315 14.781 4.66315 14.4846C4.66315 14.3451 4.66315 14.2115 4.66315 14.072C4.67484 13.9325 4.669 13.7931 4.669 13.6536Z" fill="#DBC8B7"/>
<path d="M19.9941 5.76545C19.9941 4.10291 18.7281 2.82038 17.0579 2.79069C16.8143 2.78475 16.5825 2.78475 16.3566 2.78475H15.1025V0.52845C15.1025 0.237506 14.8648 0 14.5736 0C14.2823 0 14.0446 0.237506 14.0446 0.52845V2.79069H5.93759V0.52845C5.93759 0.237506 5.69985 0 5.40862 0C5.11738 0 4.87964 0.237506 4.87964 0.52845V2.79069H3.73848C3.62556 2.79069 3.51857 2.79069 3.40565 2.79663C3.29272 2.79663 3.17385 2.79663 3.06092 2.80257C2.16939 2.80851 1.40267 3.10539 0.849926 3.65759C0.297177 4.20385 0 4.96981 0 5.85452C0 8.88865 0 11.9287 0 14.9629V18.3176C0 20.1108 1.26003 21.3636 3.06686 21.3636C4.71322 21.3636 6.35958 21.3636 8.00594 21.3636H10.0327C10.734 21.3636 11.4354 21.3636 12.1367 21.3636C12.8083 21.3636 13.4918 21.3636 14.1813 21.3636C15.1204 21.3636 16.0654 21.3636 17.0045 21.3636C18.7103 21.3577 19.9941 20.0811 20 18.3948C20 13.6981 20 9.56554 19.9941 5.76545ZM5.40862 5.18356C5.69985 5.18356 5.93759 4.94606 5.93759 4.65511V3.84165H14.0505V4.66105C14.0505 4.95199 14.2883 5.1895 14.5795 5.1895C14.8707 5.1895 15.1085 4.95199 15.1085 4.66105V3.84165H15.8098H16.0535C16.4636 3.84165 16.8796 3.83572 17.2957 3.86541C18.0802 3.91291 18.7935 4.57792 18.9123 5.3795C18.9421 5.58732 18.948 5.80108 18.948 6.0564C18.948 10.1415 18.948 14.2622 18.948 18.1336C18.948 19.618 18.2288 20.3424 16.7429 20.3424C15.1679 20.3424 13.5691 20.3424 12.0178 20.3424C11.3403 20.3424 10.6686 20.3424 9.99109 20.3424H8.1367C6.50817 20.3424 4.8737 20.3424 3.24517 20.3424C1.789 20.3424 1.01634 19.5764 1.01634 18.1336C1.01634 13.5913 1.01634 9.61898 1.01634 6.00296C1.01634 4.63136 1.80089 3.84165 3.1679 3.84165C3.31055 3.84165 3.45319 3.84166 3.59584 3.84759C3.80981 3.85353 4.02972 3.85353 4.24369 3.84759L4.38633 3.84165V3.83572H4.8737V4.65511C4.87964 4.94606 5.11738 5.18356 5.40862 5.18356Z" fill="#DBC8B7"/>
</svg>
