<svg width="11" height="12" viewBox="0 0 11 12" fill="none" xmlns="http://www.w3.org/2000/svg">
<path d="M2.76802 11.2943C2.57202 10.7437 2.35736 10.207 2.12402 9.68433C1.89069 9.16166 1.63869 8.65766 1.36802 8.17233C1.09736 7.68699 0.808022 7.22966 0.500022 6.80033L0.934022 6.49233C1.37269 7.12699 1.77869 7.81766 2.15202 8.56433C2.52536 9.30166 2.82869 10.0297 3.06202 10.7483H3.11802C3.38869 9.83366 3.73402 8.90966 4.15402 7.97633C4.58336 7.04299 5.06869 6.12833 5.61002 5.23233C6.16069 4.32699 6.74869 3.47299 7.37402 2.67033C7.99936 1.86766 8.64802 1.14433 9.32002 0.500328L9.71202 0.920328C8.80669 1.76033 7.94802 2.73099 7.13602 3.83233C6.33336 4.92433 5.61469 6.10033 4.98002 7.36033C4.34536 8.61099 3.84136 9.88966 3.46802 11.1963L2.76802 11.2943Z" fill="#F8F8F8"/>
<path d="M2.76802 11.2943L2.29697 11.462C2.37655 11.6856 2.60232 11.8224 2.83735 11.7895L2.76802 11.2943ZM1.36802 8.17233L0.931341 8.41586H0.931341L1.36802 8.17233ZM0.500022 6.80033L0.210649 6.39257C0.102145 6.46958 0.0288063 6.58665 0.00686687 6.71788C-0.0150726 6.84911 0.0161968 6.98367 0.0937533 7.09178L0.500022 6.80033ZM0.934022 6.49233L1.34534 6.20804C1.26933 6.09807 1.15244 6.02311 1.02079 5.99991C0.889132 5.97672 0.753669 6.00721 0.644649 6.08457L0.934022 6.49233ZM2.15202 8.56433L1.7048 8.78794L1.70594 8.79019L2.15202 8.56433ZM3.06202 10.7483L2.58646 10.9027C2.65336 11.1088 2.84537 11.2483 3.06202 11.2483V10.7483ZM3.11802 10.7483V11.2483C3.33952 11.2483 3.53462 11.1026 3.59747 10.8902L3.11802 10.7483ZM4.15402 7.97633L3.69976 7.76737L3.69806 7.77115L4.15402 7.97633ZM5.61002 5.23233L5.18284 4.97249L5.18207 4.97377L5.61002 5.23233ZM7.37402 2.67033L6.97959 2.36304L7.37402 2.67033ZM9.32002 0.500328L9.68555 0.159169C9.59429 0.0613888 9.46766 0.00424945 9.33396 0.000522137C9.20026 -0.00320518 9.07064 0.0467902 8.97407 0.139334L9.32002 0.500328ZM9.71202 0.920328L10.0521 1.28686C10.1495 1.19649 10.2069 1.07107 10.2117 0.938295C10.2165 0.805517 10.1682 0.676299 10.0775 0.579168L9.71202 0.920328ZM7.13602 3.83233L6.73358 3.53561L6.73315 3.5362L7.13602 3.83233ZM4.98002 7.36033L5.4259 7.58659L5.42657 7.58526L4.98002 7.36033ZM3.46802 11.1963L3.53735 11.6915C3.73318 11.6641 3.89446 11.5238 3.94878 11.3337L3.46802 11.1963ZM2.76802 11.2943L3.23907 11.1267C3.03881 10.564 2.81933 10.0153 2.58059 9.4805L2.12402 9.68433L1.66745 9.88815C1.89538 10.3987 2.10524 10.9233 2.29697 11.462L2.76802 11.2943ZM2.12402 9.68433L2.58059 9.4805C2.3414 8.94472 2.0828 8.42744 1.8047 7.92879L1.36802 8.17233L0.931341 8.41586C1.19458 8.88788 1.43998 9.37861 1.66745 9.88815L2.12402 9.68433ZM1.36802 8.17233L1.8047 7.92879C1.52529 7.42777 1.22588 6.95436 0.906292 6.50887L0.500022 6.80033L0.0937533 7.09178C0.390166 7.50496 0.669424 7.94622 0.931341 8.41586L1.36802 8.17233ZM0.500022 6.80033L0.789396 7.20808L1.2234 6.90008L0.934022 6.49233L0.644649 6.08457L0.210649 6.39257L0.500022 6.80033ZM0.934022 6.49233L0.522709 6.77662C0.946958 7.39043 1.34115 8.06062 1.70481 8.78793L2.15202 8.56433L2.59924 8.34072C2.21623 7.5747 1.79842 6.86356 1.34534 6.20804L0.934022 6.49233ZM2.15202 8.56433L1.70594 8.79019C2.06869 9.50662 2.3618 10.2108 2.58646 10.9027L3.06202 10.7483L3.53759 10.5939C3.29558 9.84855 2.98202 9.0967 2.5981 8.33847L2.15202 8.56433ZM3.06202 10.7483V11.2483H3.11802V10.7483V10.2483H3.06202V10.7483ZM3.11802 10.7483L3.59747 10.8902C3.8613 9.99864 4.19857 9.09577 4.60998 8.18151L4.15402 7.97633L3.69806 7.77115C3.26948 8.72355 2.91608 9.66868 2.63857 10.6065L3.11802 10.7483ZM4.15402 7.97633L4.60827 8.18528C5.02963 7.26928 5.50615 6.37116 6.03798 5.49089L5.61002 5.23233L5.18207 4.97377C4.63123 5.8855 4.13708 6.81671 3.69978 7.76738L4.15402 7.97633ZM5.61002 5.23233L6.03721 5.49216C6.57829 4.60259 7.15542 3.7645 7.76845 2.97762L7.37402 2.67033L6.97959 2.36304C6.34196 3.18149 5.74309 4.0514 5.18284 4.97249L5.61002 5.23233ZM7.37402 2.67033L7.76845 2.97762C8.3803 2.19226 9.01293 1.48715 9.66598 0.861322L9.32002 0.500328L8.97407 0.139334C8.28311 0.801502 7.61841 1.54307 6.97959 2.36304L7.37402 2.67033ZM9.32002 0.500328L8.9545 0.841487L9.3465 1.26149L9.71202 0.920328L10.0775 0.579168L9.68555 0.159169L9.32002 0.500328ZM9.71202 0.920328L9.37194 0.553796C8.44138 1.4172 7.56218 2.41177 6.73358 3.53561L7.13602 3.83233L7.53846 4.12904C8.33387 3.05022 9.172 2.10345 10.0521 1.28686L9.71202 0.920328ZM7.13602 3.83233L6.73315 3.5362C5.9133 4.65157 5.18017 5.8515 4.53347 7.1354L4.98002 7.36033L5.42657 7.58526C6.0492 6.34915 6.75341 5.19708 7.5389 4.12846L7.13602 3.83233ZM4.98002 7.36033L4.53415 7.13406C3.8855 8.41227 3.36964 9.72065 2.98726 11.059L3.46802 11.1963L3.94878 11.3337C4.31308 10.0587 4.80521 8.80972 5.4259 7.58659L4.98002 7.36033ZM3.46802 11.1963L3.3987 10.7012L2.6987 10.7992L2.76802 11.2943L2.83735 11.7895L3.53735 11.6915L3.46802 11.1963Z" fill="#F8F8F8"/>
</svg>
