<svg width="23" height="23" viewBox="0 0 23 23" fill="none" xmlns="http://www.w3.org/2000/svg">
<path d="M11.3901 5.54706C8.15864 5.54706 5.55214 8.15356 5.55214 11.385C5.55214 14.6165 8.15864 17.223 11.3901 17.223C14.6215 17.223 17.228 14.6165 17.228 11.385C17.228 8.15356 14.6215 5.54706 11.3901 5.54706ZM11.3901 15.1804C9.30184 15.1804 7.59466 13.4783 7.59466 11.385C7.59466 9.29168 9.29676 7.58958 11.3901 7.58958C13.4834 7.58958 15.1855 9.29168 15.1855 11.385C15.1855 13.4783 13.4783 15.1804 11.3901 15.1804ZM18.8285 5.30826C18.8285 6.06531 18.2188 6.66994 17.4668 6.66994C16.7098 6.66994 16.1052 6.06023 16.1052 5.30826C16.1052 4.55629 16.7149 3.94658 17.4668 3.94658C18.2188 3.94658 18.8285 4.55629 18.8285 5.30826ZM22.6951 6.69026C22.6087 4.86622 22.1921 3.2505 20.8558 1.91931C19.5246 0.588113 17.9089 0.17148 16.0848 0.080024C14.2049 -0.0266747 8.57019 -0.0266747 6.69026 0.080024C4.8713 0.166399 3.25558 0.583032 1.91931 1.91423C0.583032 3.24542 0.17148 4.86114 0.080024 6.68518C-0.0266747 8.56511 -0.0266747 14.1998 0.080024 16.0798C0.166399 17.9038 0.583032 19.5195 1.91931 20.8507C3.25558 22.1819 4.86622 22.5985 6.69026 22.69C8.57019 22.7967 14.2049 22.7967 16.0848 22.69C17.9089 22.6036 19.5246 22.187 20.8558 20.8507C22.187 19.5195 22.6036 17.9038 22.6951 16.0798C22.8018 14.1998 22.8018 8.57019 22.6951 6.69026ZM20.2664 18.0969C19.8701 19.0927 19.1029 19.8599 18.1019 20.2613C16.6031 20.8558 13.0465 20.7186 11.3901 20.7186C9.73372 20.7186 6.17201 20.8507 4.67823 20.2613C3.68238 19.865 2.91516 19.0978 2.51377 18.0969C1.91931 16.598 2.05649 13.0414 2.05649 11.385C2.05649 9.72864 1.92439 6.16693 2.51377 4.67315C2.91008 3.6773 3.67729 2.91008 4.67823 2.50869C6.17709 1.91423 9.73372 2.05141 11.3901 2.05141C13.0465 2.05141 16.6082 1.91931 18.1019 2.50869C19.0978 2.905 19.865 3.67221 20.2664 4.67315C20.8609 6.17201 20.7237 9.72864 20.7237 11.385C20.7237 13.0414 20.8609 16.6031 20.2664 18.0969Z" fill="white"/>
</svg>
