<svg width="26" height="25" viewBox="0 0 26 25" fill="none" xmlns="http://www.w3.org/2000/svg">
<path d="M10.8729 21.1443C12.3932 21.4749 12.2189 22.0377 11.8771 24.1057C11.8214 24.4363 11.6121 25.3999 13 24.8161C14.3879 24.2323 20.4834 20.3706 23.2173 17.2053C25.1003 15.1162 26 12.9989 26 10.6566V10.6425C26 4.77611 20.1626 0 13 0C5.83745 0 0 4.77611 0 10.6425C0 15.8969 4.62393 20.3073 10.8729 21.1443ZM17.7704 8.06101C17.7704 7.9133 17.8959 7.80075 18.0284 7.80075H21.669C21.8085 7.80075 21.9201 7.92737 21.927 8.06101V8.97544C21.927 9.12315 21.8155 9.2357 21.669 9.2357H19.1931V10.1994H21.669C21.8155 10.1994 21.927 10.3119 21.927 10.4596V11.3811C21.927 11.5288 21.8155 11.6413 21.669 11.6413H19.1931V12.598H21.669C21.8155 12.598 21.927 12.7105 21.927 12.8582V13.7797C21.927 13.9274 21.8155 14.04 21.669 14.04H18.0284C17.882 14.04 17.7704 13.9133 17.7704 13.7797V8.06101ZM11.4936 8.06805C11.4936 7.92033 11.6052 7.80779 11.7516 7.80779H12.6513C12.728 7.80779 12.8187 7.84999 12.8605 7.92033L15.4619 11.4585V8.06805C15.4619 7.92033 15.5735 7.80779 15.72 7.80779H16.6266C16.7731 7.80075 16.8916 7.92033 16.8916 8.05398V8.06101V13.7797C16.8916 13.9274 16.78 14.04 16.6336 14.04H15.7269C15.6363 14.04 15.5595 13.9907 15.5177 13.9344L12.9163 10.3963V13.7867C12.9163 13.9344 12.8047 14.047 12.6583 14.047H11.7516C11.6052 14.047 11.4936 13.9344 11.4936 13.7867V8.06805ZM9.19206 8.06101C9.19206 7.9133 9.30365 7.80075 9.45011 7.80075H10.3568C10.5032 7.80075 10.6148 7.92737 10.6148 8.06101V13.7797C10.6148 13.9274 10.5032 14.04 10.3568 14.04H9.45011C9.30365 14.04 9.19206 13.9274 9.19206 13.7797V8.06101ZM4.26127 8.06101C4.26127 7.9133 4.37285 7.80075 4.51931 7.80075H5.42597C5.57242 7.80075 5.68401 7.9133 5.68401 8.06101V12.5909H8.15987C8.29238 12.5909 8.40397 12.7175 8.40397 12.8512V13.7656C8.40397 13.9133 8.29238 14.0259 8.14592 14.0259H4.50536C4.43562 14.0259 4.37983 13.9977 4.33101 13.9555C4.28219 13.9063 4.26127 13.85 4.26127 13.7797V8.06101Z" fill="#DBC8B7"/>
</svg>
