<svg width="18" height="15" viewBox="0 0 18 15" fill="none" xmlns="http://www.w3.org/2000/svg">
<path d="M16.7379 7.87316C18.4207 6.07116 18.4207 3.15287 16.7379 1.35087C15.2487 -0.243823 12.9017 -0.451133 11.1891 0.859704L11.1415 0.894787C10.7126 1.22329 10.6143 1.86117 10.9211 2.31725C11.2278 2.77333 11.8235 2.88177 12.2494 2.55327L12.2971 2.51818C13.2532 1.78781 14.5607 1.90263 15.3887 2.79247C16.3269 3.79713 16.3269 5.42371 15.3887 6.42837L12.0469 10.0132C11.1087 11.0179 9.58972 11.0179 8.65153 10.0132C7.82055 9.12339 7.71333 7.72326 8.39538 6.70265L8.42815 6.65162C8.73492 6.19235 8.63366 5.55448 8.20774 5.22916C7.78183 4.90384 7.18317 5.00909 6.87937 5.46517L6.84661 5.5162C5.61951 7.34691 5.81311 9.86014 7.30231 11.4548C8.98511 13.2568 11.7104 13.2568 13.3932 11.4548L16.7379 7.87316ZM1.2621 7.12684C-0.4207 8.92884 -0.4207 11.8471 1.2621 13.6491C2.7513 15.2438 5.09829 15.4511 6.81087 14.1403L6.85853 14.1052C7.28742 13.7767 7.3857 13.1388 7.07893 12.6827C6.77215 12.2267 6.17647 12.1182 5.75056 12.4467L5.7029 12.4818C4.74684 13.2122 3.43932 13.0974 2.61132 12.2075C1.67312 11.1997 1.67312 9.5731 2.61132 8.56844L5.95309 4.98677C6.89129 3.98211 8.41028 3.98211 9.34847 4.98677C10.1794 5.8766 10.2867 7.27674 9.60462 8.30053L9.57185 8.35156C9.26508 8.81084 9.36634 9.44871 9.79226 9.77403C10.2182 10.0993 10.8168 9.9941 11.1206 9.53801L11.1534 9.48698C12.3805 7.65309 12.1869 5.13986 10.6977 3.54516C9.01489 1.74316 6.28965 1.74316 4.60685 3.54516L1.2621 7.12684Z" fill="white"/>
</svg>
