<svg width="170" height="51" viewBox="0 0 170 51" fill="none" xmlns="http://www.w3.org/2000/svg">
<path d="M8.466 0V30.43C8.466 30.872 8.432 31.484 8.296 32.164C8.194 32.674 8.024 33.218 7.752 33.728C7.548 34.102 7.31 34.476 6.97 34.816C6.494 35.326 5.848 35.768 4.896 36.142C3.978 36.482 2.754 36.72 1.122 36.72C0.816 36.72 0.476 36.72 0.136 36.686L0 39.576C0.408 39.61 0.782 39.61 1.156 39.61C2.278 39.61 3.298 39.508 4.182 39.338C5.78 39.032 7.072 38.42 8.092 37.672C8.84 37.094 9.452 36.448 9.894 35.768C10.574 34.748 10.948 33.66 11.152 32.742C11.356 31.79 11.39 30.974 11.39 30.43V0H8.466Z" fill="white"/>
<path d="M43.1799 30.566V0H40.2559V30.566" fill="white"/>
<path d="M51.2365 30.5661V10.0981H48.3125V30.5661" fill="white"/>
<path d="M51.2033 8.90803V6.12003H48.2793V8.90803" fill="white"/>
<path d="M150.551 8.26202L145.417 23.256L140.249 8.26202H137.053L131.885 23.256L126.751 8.26202H123.691L131.409 30.566H132.395L138.651 12.342L144.907 30.566H145.893L153.611 8.26202H150.551Z" fill="white"/>
<path d="M163.165 17.476C162.383 17.17 161.601 16.796 160.887 16.422C160.173 16.048 159.561 15.708 159.153 15.436C158.779 15.198 158.473 14.858 158.269 14.518C158.065 14.178 157.963 13.804 157.963 13.43C157.963 13.192 157.997 12.954 158.031 12.75C158.099 12.444 158.201 12.172 158.405 11.934C158.575 11.662 158.813 11.424 159.153 11.186C159.391 11.016 159.629 10.846 159.867 10.744C160.241 10.574 160.615 10.404 161.057 10.336C161.533 10.234 162.077 10.166 162.791 10.166C163.165 10.166 163.539 10.234 163.947 10.336C164.559 10.506 165.205 10.812 165.919 11.22C166.429 11.526 167.143 12.07 167.687 12.478L169.965 10.642C168.877 9.826 167.653 8.874 166.497 8.296C165.919 7.99 165.307 7.752 164.695 7.582C164.083 7.412 163.437 7.31 162.791 7.31C161.669 7.31 160.683 7.446 159.799 7.684C159.357 7.82 158.949 7.99 158.541 8.194C158.167 8.398 157.793 8.636 157.453 8.908C156.739 9.452 156.127 10.132 155.753 10.88C155.549 11.254 155.413 11.662 155.311 12.104C155.209 12.546 155.175 12.954 155.175 13.396C155.175 14.28 155.447 15.13 155.855 15.912C156.297 16.66 156.909 17.306 157.691 17.816C158.201 18.156 158.881 18.53 159.663 18.938C160.445 19.346 161.295 19.754 162.179 20.094C162.995 20.434 163.743 20.808 164.355 21.148C164.661 21.318 164.933 21.488 165.171 21.658C165.409 21.828 165.613 21.964 165.749 22.1C166.191 22.474 166.531 22.848 166.735 23.222C166.837 23.392 166.905 23.596 166.973 23.766C167.007 23.936 167.041 24.106 167.041 24.31C167.041 24.548 167.007 24.786 166.939 24.956C166.837 25.262 166.701 25.534 166.463 25.84C166.225 26.146 165.885 26.452 165.477 26.758C165.001 27.098 164.457 27.37 163.743 27.54C163.063 27.71 162.247 27.778 161.397 27.778C160.581 27.778 159.595 27.574 158.677 27.166C157.759 26.792 156.705 26.044 156.059 25.364L154.291 27.608C154.393 27.71 154.359 27.676 154.461 27.778C155.379 28.628 156.467 29.308 157.589 29.784C158.847 30.294 160.139 30.6 161.397 30.6C162.417 30.6 163.437 30.498 164.423 30.26C165.409 30.022 166.361 29.614 167.177 28.968C167.551 28.696 167.891 28.39 168.197 28.05C168.673 27.574 169.081 26.996 169.387 26.35C169.693 25.704 169.829 24.99 169.829 24.242C169.829 23.8 169.761 23.358 169.659 22.95C169.489 22.338 169.183 21.76 168.809 21.25C168.435 20.74 167.993 20.298 167.517 19.89C167.041 19.482 166.429 19.074 165.681 18.666C164.933 18.258 164.083 17.85 163.165 17.476Z" fill="white"/>
<path d="M16.1836 8.73804V19.89C16.1836 21.556 16.4216 23.052 16.8636 24.412C17.2036 25.398 17.6796 26.316 18.2576 27.098C19.1076 28.288 20.2296 29.206 21.4876 29.784C22.7456 30.396 24.1736 30.702 25.6356 30.702C26.9616 30.702 28.2196 30.464 29.3756 29.954C30.2256 29.58 31.0416 29.07 31.7556 28.424C32.8096 27.472 33.6596 26.248 34.2376 24.82C34.8156 23.392 35.1216 21.726 35.1216 19.924V8.73804H32.1976V19.89C32.1976 21.216 31.9936 22.372 31.6536 23.358C31.3816 24.106 31.0756 24.718 30.6676 25.262C30.0896 26.078 29.3416 26.69 28.4916 27.098C27.6416 27.506 26.6896 27.744 25.6356 27.744C24.6836 27.744 23.7996 27.574 23.0516 27.268C22.4736 27.03 21.9636 26.69 21.4876 26.282C20.7736 25.67 20.1956 24.854 19.7876 23.8C19.3796 22.746 19.1076 21.42 19.1076 19.89V8.73804H16.1836Z" fill="white"/>
<path d="M80.0703 30.668V18.972C80.0703 17.238 80.3083 15.64 80.7843 14.246C81.1583 13.192 81.6343 12.24 82.2463 11.424C83.1643 10.2 84.3203 9.21402 85.6463 8.60202C86.9723 7.95602 88.4343 7.65002 89.9983 7.65002C91.3583 7.65002 92.7183 7.92202 93.9083 8.43202C94.8263 8.80602 95.6423 9.35002 96.3903 10.03C97.5123 11.016 98.3963 12.308 99.0083 13.838C99.6203 15.334 99.9263 17.068 99.9263 19.006V30.702H96.8663V18.972C96.8663 17.578 96.6623 16.354 96.2883 15.334C96.0163 14.552 95.6763 13.906 95.2683 13.328C94.6563 12.478 93.8743 11.832 92.9903 11.39C92.1063 10.948 91.0863 10.71 89.9983 10.71C89.0123 10.71 88.0943 10.88 87.2783 11.22C86.6663 11.458 86.1223 11.798 85.6123 12.24C84.8643 12.886 84.2523 13.736 83.8103 14.858C83.3683 15.98 83.0963 17.34 83.0963 18.972V30.668H80.0703Z" fill="white"/>
<path d="M73.6439 30.668H76.5339V19.618C76.5339 17.204 76.0239 14.756 74.9359 12.92C73.8139 11.016 72.2499 9.55402 70.4479 8.70402C69.1899 8.12602 67.1159 7.68402 65.6879 7.68402C64.2599 7.68402 62.1519 8.09202 60.9279 8.70402C59.0579 9.58802 57.4939 11.05 56.4059 12.886C55.3179 14.688 54.6719 16.864 54.6719 19.21C54.6719 22.304 55.7939 25.126 57.6299 27.234C58.5479 28.288 59.6699 29.138 60.8939 29.716C62.1519 30.294 64.2259 30.634 65.6539 30.634C67.0819 30.634 68.9519 30.294 70.1759 29.716C70.4479 29.58 71.8079 28.9 72.6919 28.152V24.548C71.1959 26.112 68.9519 27.064 68.9519 27.064C68.0679 27.472 66.6739 27.71 65.6539 27.71C64.6339 27.71 63.0019 27.472 62.1179 27.064C60.7919 26.452 59.6699 25.364 58.8199 24.004C58.0039 22.644 57.5279 20.978 57.5279 19.176C57.5279 16.762 58.4119 14.62 59.7719 13.09C60.4519 12.308 61.2679 11.73 62.1179 11.288C63.0019 10.88 64.6339 10.574 65.6539 10.574C66.6739 10.574 68.3059 10.88 69.1899 11.288C70.5159 11.9 71.6379 12.988 72.4879 14.348C73.3039 15.708 73.6439 17.578 73.6439 19.38C73.6439 19.448 73.6439 21.318 73.6439 23.562V30.668Z" fill="white"/>
<path d="M116.893 26.146C116.315 26.554 115.703 26.86 115.091 27.064C114.445 27.268 113.765 27.37 113.085 27.37C112.099 27.37 111.147 27.132 110.263 26.724C108.971 26.112 107.815 25.058 106.999 23.698C106.285 22.508 105.809 21.08 105.707 19.516C105.639 17.68 105.945 16.592 105.945 16.592C106.285 15.13 106.999 13.838 107.883 12.818C108.563 12.07 109.345 11.458 110.229 11.05C111.113 10.642 112.031 10.404 113.051 10.404C114.037 10.404 114.989 10.642 115.873 11.05C117.165 11.662 118.321 12.648 119.137 14.008C119.783 15.13 120.327 16.66 120.429 17.748L106.795 17.782C106.557 18.768 106.795 20.672 106.795 20.672H121.687H123.285C123.625 17.17 122.945 13.804 120.395 10.88C119.477 9.82598 118.355 9.00998 117.131 8.39798C115.873 7.81998 114.513 7.47998 113.051 7.47998C111.623 7.47998 110.229 7.81998 108.971 8.39798C107.101 9.28198 105.537 10.744 104.449 12.58C103.361 14.382 102.715 16.558 102.715 18.904C102.715 21.998 103.837 24.82 105.673 26.894C106.591 27.948 107.713 28.764 108.937 29.376C110.195 29.954 111.555 30.294 113.017 30.294C114.037 30.294 115.023 30.124 115.941 29.818C117.335 29.376 118.593 28.594 119.647 27.608C120.599 26.724 121.891 24.99 122.469 23.392H119.341C118.729 24.548 117.845 25.5 116.893 26.146Z" fill="white"/>
<path d="M65.4835 49.368C63.1375 48.45 60.9955 47.192 59.0915 45.628V49.98H57.6295V45.662C55.3515 47.532 53.2095 48.756 51.1695 49.368L50.3535 47.94C52.8695 47.158 55.0795 46.002 56.9495 44.438H50.7275V42.976H57.6635V40.868H53.1075C52.6655 41.48 52.2235 42.024 51.7135 42.466L50.6255 41.412C52.0875 40.222 52.4955 39.1 52.9035 37.808L54.3315 38.182L53.9235 39.406H57.6975V37.808H59.1595V39.406H65.0415V40.868H59.1595V42.976H66.0615V44.438H59.8395C61.5395 46.002 63.7495 47.192 66.4355 48.008L65.4835 49.368ZM60.8935 36.924H55.8955V37.978H54.3995V36.924H50.5915V35.462H54.3995V34.068H55.8615V35.462H60.8595V34.068H62.3215V35.462H66.0955V36.924H62.3215V38.046H60.8595V36.924H60.8935Z" fill="white"/>
<path d="M75.9894 47.498C75.2414 46.682 74.3234 45.764 73.2694 44.812V49.98H71.8074V44.88C70.8554 46.308 69.8354 47.498 68.7474 48.45L67.5234 47.634C69.0874 46.376 70.3794 44.914 71.4334 43.248H68.2034V41.82H71.8074V40.222L68.8834 40.494L68.6114 39.032C71.7054 38.828 74.1194 38.522 75.8194 38.046L76.1594 39.474C75.5814 39.644 74.6294 39.848 73.2694 40.052V41.82H76.4994V43.214H73.3374C74.5954 44.2 75.7854 45.254 76.9754 46.41L75.9894 47.498ZM77.9274 36.822H73.4054V37.842H71.9434V36.822H67.7954V35.428H71.9434V34H73.4054V35.428H77.9274V34H79.3894V35.428H83.4354V36.822H79.3894V37.842H77.9274V36.822ZM77.7574 39.202H79.2194V46.614H77.7574V39.202ZM81.4294 37.57H82.8914V48.314C82.8914 49.062 82.4494 50.15 80.7154 50.15C80.1034 50.15 79.3214 50.014 78.4374 49.776V48.246L79.7974 48.586L80.6474 48.688C80.8514 48.722 81.0554 48.62 81.2594 48.45C81.3614 48.348 81.3954 48.178 81.3954 47.94V37.57H81.4294Z" fill="white"/>
<path d="M89.8952 48.042V45.22C89.8952 45.084 89.8272 45.05 89.6912 45.05H86.0192C85.7132 45.05 85.7132 44.812 85.7132 44.71V38.896C85.6792 38.692 85.8832 38.556 86.0192 38.59H89.7252C89.8612 38.59 89.9292 38.522 89.9292 38.42V36.04H85.5092V34.578H100.299V36.04H95.9132V38.318C95.9132 38.454 95.9812 38.522 96.1172 38.522H99.7212C99.9592 38.522 100.061 38.624 100.061 38.828V44.778C100.061 45.016 99.9252 45.118 99.7212 45.118H96.1172C95.9812 45.118 95.9132 45.186 95.9132 45.322V48.11H100.707V49.572H85.0332V48.11H89.8952V48.042ZM91.3572 48.042H94.4512V43.962C94.4512 43.724 94.5872 43.588 94.8252 43.588H98.3612C98.5312 43.588 98.5992 43.52 98.5992 43.384V40.154C98.5992 40.018 98.5312 39.95 98.3612 39.95H94.8252C94.5532 39.95 94.4512 39.814 94.4512 39.542V36.04H91.3572V39.712L91.2212 39.984L90.9492 40.12H87.3452C87.2092 40.12 87.1412 40.188 87.1412 40.324V43.418C87.1412 43.588 87.2092 43.622 87.3452 43.622H90.9492L91.2212 43.724L91.3572 43.996V48.042Z" fill="white"/>
<path d="M105.977 43.792V50.116H104.651V44.268C104.447 44.88 104.005 45.696 103.359 46.682L102.033 46.206C102.985 44.88 103.767 43.418 104.311 41.752H102.271V40.426H104.685V34.136H106.011V40.426H108.323V41.752H106.011V41.888C106.861 42.874 107.677 43.928 108.459 45.016L107.371 45.798L105.977 43.792ZM102.883 39.508C102.815 38.522 102.577 37.162 102.237 35.462L103.563 35.258C103.869 36.584 104.107 37.978 104.209 39.406L102.883 39.508ZM106.351 39.236C106.759 37.74 107.031 36.414 107.099 35.36L108.391 35.632C108.119 37.298 107.881 38.624 107.609 39.576L106.351 39.236ZM113.899 39.236H118.115V40.562H108.459V39.236H112.505V38.352H109.207V37.128H112.505V36.176H108.867V34.952H112.505V34H113.899V34.952H117.843V36.176H113.899V37.128H117.435V38.352H113.899V39.236ZM110.397 47.09V50.014H109.003V41.718C109.003 41.48 109.105 41.378 109.343 41.378H117.231C117.435 41.378 117.571 41.48 117.571 41.718V48.416C117.571 49.436 116.891 50.048 115.429 50.048C114.953 50.048 114.409 49.98 113.763 49.844L113.695 48.28C114.375 48.484 114.919 48.552 115.293 48.552C116.177 48.552 116.177 47.906 116.177 47.804V47.022H110.397V47.09ZM110.397 43.656H116.143V42.772C116.143 42.704 116.109 42.67 116.007 42.67H110.499C110.431 42.67 110.397 42.704 110.397 42.772V43.656ZM110.397 45.9H116.143V44.88H110.397V45.9Z" fill="white"/>
<path d="M121.413 49.096V49.674H119.951V42.092C119.951 41.922 120.019 41.854 120.189 41.854H126.343C126.581 41.854 126.683 41.956 126.683 42.16V49.674H125.221V49.096H121.413ZM133.959 40.324C133.959 40.494 133.891 40.562 133.755 40.562H121.175C121.039 40.562 120.971 40.494 120.971 40.324V34.85C120.971 34.714 121.039 34.646 121.175 34.646H133.755C133.925 34.646 133.959 34.714 133.959 34.85V40.324ZM121.413 47.6H125.221V43.52C125.221 43.384 125.153 43.316 124.983 43.316H121.617C121.447 43.316 121.379 43.418 121.413 43.52V47.6ZM132.395 36.108H122.467C122.399 36.108 122.399 36.142 122.399 36.176V38.998C122.399 39.066 122.433 39.1 122.467 39.1H132.395C132.463 39.1 132.463 39.066 132.463 38.998V36.176L132.395 36.108ZM129.641 49.096V49.674H128.179V42.092C128.145 41.922 128.247 41.854 128.417 41.854H134.605C134.809 41.854 134.911 41.956 134.911 42.16V49.674H133.449V49.096H129.641ZM129.641 47.6H133.449V43.52C133.449 43.384 133.381 43.316 133.211 43.316H129.845C129.675 43.316 129.607 43.418 129.641 43.52V47.6Z" fill="white"/>
<path d="M136.611 49.096C137.631 48.11 138.481 47.056 139.127 45.934L136.951 44.098C136.849 43.962 136.815 43.826 136.815 43.656C136.815 43.486 136.849 43.35 136.917 43.146C137.189 42.398 137.597 40.664 138.141 37.978H136.883V36.516H138.345L138.651 34.102L140.113 34.306L139.841 36.516H142.085C142.289 36.516 142.357 36.652 142.357 36.924V36.992C142.221 40.562 141.711 43.384 140.861 45.458L142.527 46.852L141.745 48.11L140.249 46.886C139.705 47.872 138.923 48.892 137.903 49.946L136.611 49.096ZM139.739 44.506C140.623 42.228 140.861 39.236 140.963 37.978H139.671C139.467 39.27 139.059 41.004 138.447 43.146C138.447 43.316 138.481 43.316 138.617 43.52L139.739 44.506ZM152.625 39.814C152.659 41.208 152.523 42.092 152.217 42.398C152.081 42.534 151.945 42.636 151.809 42.636C151.401 42.636 151.027 42.5 150.619 42.262C149.327 41.514 148.409 40.392 147.831 38.862H144.567V40.936L145.247 40.8C146.335 40.63 147.151 40.426 147.695 40.256L148.035 41.616C146.879 42.024 145.111 42.364 142.663 42.602L142.357 41.208L143.241 41.106V35.054C143.241 34.816 143.309 34.68 143.581 34.68L144.533 34.714C146.913 34.714 149.191 34.476 151.265 34.034L151.843 35.428C150.823 35.666 149.701 35.802 148.545 35.938C148.613 36.482 148.681 37.026 148.817 37.57H152.149V38.896H149.259L149.667 39.61C150.177 40.426 150.993 41.038 151.197 41.038C151.265 41.004 151.299 40.97 151.299 40.868V39.61L152.625 39.814ZM144.533 49.266V49.81H143.207V43.112C143.173 42.942 143.275 42.874 143.411 42.874H151.809C151.979 42.874 152.081 42.976 152.081 43.146V49.81H150.755V49.266H144.533ZM144.533 45.424H150.755V44.37C150.755 44.268 150.687 44.2 150.551 44.2H144.703C144.567 44.2 144.499 44.268 144.533 44.37V45.424ZM150.755 46.75H144.533V47.906H150.755V46.75ZM147.491 37.536L147.253 36.006L144.703 36.074C144.635 36.04 144.567 36.108 144.601 36.21V37.536H147.491Z" fill="white"/>
<path d="M156.604 42.67L154.258 42.976C154.19 42.568 154.054 42.126 153.884 41.616L155.04 41.446C155.482 41.004 155.924 40.426 156.434 39.746C155.618 38.828 154.768 38.046 153.85 37.468L154.598 36.312L155.176 36.686C155.584 35.87 156.026 34.986 156.4 34.034L157.658 34.68C157.352 35.428 156.876 36.38 156.196 37.536L157.182 38.522C157.828 37.434 158.338 36.346 158.644 35.292L159.97 35.666C159.596 37.196 158.508 38.998 156.808 41.106L158.678 40.8L158.27 39.78L159.596 39.338C160.004 40.29 160.378 41.378 160.718 42.602L159.358 42.908L159.12 42.16L157.964 42.33V49.98H156.57V42.67H156.604ZM153.918 48.756C154.292 47.022 154.53 45.322 154.632 43.69L155.958 43.894C155.652 46.444 155.414 48.178 155.21 49.062L153.918 48.756ZM159.868 43.52L160.548 47.702L159.222 47.906L158.542 43.826L159.868 43.52ZM167.28 38.25L166.566 36.21L167.926 35.836C169.116 39.508 169.796 41.888 170 42.942L168.64 43.248L168.47 42.568C167.858 48.11 164.73 49.402 161.296 50.082L160.48 48.688C166.6 48.144 167.178 44.37 167.246 40.936V38.25H167.28ZM160.922 42.84C161.398 40.834 161.738 38.59 161.908 36.176L163.302 36.38C163.064 38.896 162.724 41.14 162.282 43.146L160.922 42.84ZM164.288 34.136H165.75V44.2C165.75 44.982 165.274 45.9 164.05 45.9C163.506 45.9 162.792 45.764 161.908 45.492L161.976 43.962L163.03 44.302C163.302 44.37 163.506 44.404 163.71 44.404C164.186 44.404 164.288 44.166 164.288 43.792V34.136Z" fill="white"/>
</svg>
